<?xml version="1.0" encoding="UTF-8" standalone="no"?>
<!-- Created with Inkscape (http://www.inkscape.org/) -->

<svg
   width="128"
   height="128"
   viewBox="0 0 33.866666 33.866666"
   version="1.1"
   id="svg217"
   inkscape:version="1.2.1 (9c6d41e410, 2022-07-14)"
   sodipodi:docname="settings.svg"
   xmlns:inkscape="http://www.inkscape.org/namespaces/inkscape"
   xmlns:sodipodi="http://sodipodi.sourceforge.net/DTD/sodipodi-0.dtd"
   xmlns="http://www.w3.org/2000/svg"
   xmlns:svg="http://www.w3.org/2000/svg">
  <sodipodi:namedview
     id="namedview219"
     pagecolor="#ffffff"
     bordercolor="#000000"
     borderopacity="0.25"
     inkscape:showpageshadow="2"
     inkscape:pageopacity="0.0"
     inkscape:pagecheckerboard="0"
     inkscape:deskcolor="#d1d1d1"
     inkscape:document-units="mm"
     showgrid="false"
     inkscape:zoom="1.1893044"
     inkscape:cx="-497.76996"
     inkscape:cy="87.446073"
     inkscape:window-width="3072"
     inkscape:window-height="1814"
     inkscape:window-x="-11"
     inkscape:window-y="-11"
     inkscape:window-maximized="1"
     inkscape:current-layer="layer1" />
  <defs
     id="defs214" />
  <g
     inkscape:label="Layer 1"
     inkscape:groupmode="layer"
     id="layer1">
    <path
       d="m 16.690119,13.276292 a 4.5630041,4.5630041 0 1 0 4.5638,4.564063 4.5693541,4.5693541 0 0 0 -4.5638,-4.564063 z"
       id="path2"
       style="stroke-width:0.264583;fill:#ffffff" />
    <path
       d="m 25.439099,15.961549 -1.23031,-0.402167 a 0.48842083,0.48842083 0 0 1 -0.30692,-0.283104 3.432175,3.432175 0 0 0 -0.14023,-0.34925 c -0.13494,-0.298979 -0.21167,-0.492125 -0.10319,-0.687917 l 0.58738,-1.156229 a 1.2094104,1.2094104 0 0 0 -0.22225,-1.41552 l -1.10331,-1.100667 a 1.2099396,1.2099396 0 0 0 -1.41288,-0.224896 l -1.15623,0.587375 a 0.48630416,0.48630416 0 0 1 -0.42333,0.01323 c -0.10848,-0.05556 -0.2249,-0.100541 -0.33867,-0.145521 -0.30691,-0.116416 -0.50006,-0.201083 -0.56091,-0.415395 l -0.39953,-1.2329594 a 1.2170833,1.2170833 0 0 0 -1.15887,-0.841375 h -1.56104 a 1.2170833,1.2170833 0 0 0 -1.15623,0.841375 l -0.39952,1.2329594 a 0.48947916,0.48947916 0 0 1 -0.2884,0.306916 3.583252,3.583252 0 0 0 -0.34396,0.137584 c -0.29898,0.137583 -0.49477,0.214312 -0.6932,0.105833 L 11.871269,10.3418 a 1.2107333,1.2107333 0 0 0 -1.41288,0.224896 l -1.1006705,1.100667 a 1.2147021,1.2147021 0 0 0 -0.22489,1.41552 l 0.58737,1.156229 a 0.47624999,0.47624999 0 0 1 0.0159,0.418042 3.2469666,3.2469666 0 0 0 -0.14817,0.346604 c -0.11641,0.304271 -0.20108,0.494771 -0.41539,0.555625 l -1.23032,0.402167 a 1.2170833,1.2170833 0 0 0 -0.84402,1.158875 v 1.558395 a 1.2170833,1.2170833 0 0 0 0.84402,1.158875 l 1.23032,0.399521 a 0.49926874,0.49926874 0 0 1 0.30691,0.28575 c 0.037,0.121709 0.1786,0.439209 0.22702,0.551127 a 0.46487291,0.46487291 0 0 1 0.0137,0.48604 l -0.58737,1.153583 a 1.2147021,1.2147021 0 0 0 0.22489,1.415521 l 1.1006705,1.103313 a 1.222375,1.222375 0 0 0 1.41552,0.224895 l 1.16152,-0.595312 c 0.1905,-0.103188 0.38629,-0.02646 0.68792,0.108479 a 2.48285,2.48285 0 0 0 0.33073,0.134938 0.49371249,0.49371249 0 0 1 0.29898,0.312208 l 0.39952,1.230312 a 1.2170833,1.2170833 0 0 0 1.15623,0.841375 h 1.56104 a 1.2170833,1.2170833 0 0 0 1.15887,-0.841375 l 0.39953,-1.230312 a 0.48312916,0.48312916 0 0 1 0.28839,-0.306917 c 0.11906,-0.03969 0.51938,-0.206375 0.62971,-0.256381 a 0.38311666,0.38311666 0 0 1 0.40481,0.01297 l 1.15623,0.590021 a 1.2170833,1.2170833 0 0 0 1.41288,-0.224896 l 1.10066,-1.100667 a 1.2065,1.2065 0 0 0 0.2249,-1.415521 l -0.59267,-1.166812 c -0.10319,-0.185208 -0.0265,-0.378354 0.10848,-0.677333 a 3.4260895,3.4260895 0 0 0 0.13494,-0.336021 0.50667708,0.50667708 0 0 1 0.31221,-0.298979 l 1.23031,-0.399521 a 1.2170833,1.2170833 0 0 0 0.84137,-1.158875 v -1.558397 a 1.2170833,1.2170833 0 0 0 -0.84137,-1.158875 z m -8.74898,6.969918 a 5.0921708,5.0921708 0 1 1 5.09297,-5.091112 5.0979916,5.0979916 0 0 1 -5.09297,5.091112 z"
       id="path4"
       style="stroke-width:0.264583;fill:#ffffff" />
    <path
       d="M 30.506929,12.520907 C 28.603519,7.9338256 24.708589,4.6392346 20.041599,3.6295846 a 0.70749582,0.70749582 0 0 1 0.37571,-0.225161 l 3.12208,-0.551656 a 0.26462662,0.26462662 0 0 0 -0.0918,-0.521229 l -3.12235,0.551656 a 1.3337646,1.3337646 0 0 0 -0.92022,0.735542 1.3332354,1.3332354 0 0 0 -0.0529,1.176602 l 1.38826,2.850356 a 0.26482717,0.26482717 0 1 0 0.47625,-0.231775 l -1.38985,-2.850356 a 0.70934791,0.70934791 0 0 1 -0.036,-0.44794 c 4.55851,0.936625 8.37169,4.136231 10.22747,8.6082194 1.88304,4.538397 1.40838,9.593526 -1.27,13.521795 a 0.26466883,0.26466883 0 0 0 0.43736,0.298186 c 2.77918,-4.076436 3.27316,-9.318625 1.32133,-14.022917 z"
       id="path6"
       style="stroke-width:0.264583;fill:#ffffff" />
    <path
       d="m 13.844259,4.0801696 a 0.26463575,0.26463575 0 1 0 -0.0963,-0.520435 C 8.9158685,4.4553486 4.8558385,7.7967716 2.8873385,12.498418 a 14.76375,14.76375 0 0 0 1.09035,13.727112 0.63949791,0.63949791 0 0 1 -0.3003,-0.02646 l -2.97021999,-1.11125 a 0.26464563,0.26464563 0 0 0 -0.18521,0.495829 l 2.97021999,1.11125 a 1.3287375,1.3287375 0 0 0 1.16602,-0.165365 1.3350875,1.3350875 0 0 0 0.64479,-0.986102 l 0.25161,-3.160448 a 0.2646273,0.2646273 0 0 0 -0.52758,-0.04207 l -0.25188,3.159918 a 0.77337707,0.77337707 0 0 1 -0.30797,0.509059 14.232466,14.232466 0 0 1 -1.09167,-13.306954 c 1.89944,-4.5365464 5.81289,-7.7599654 10.4687605,-8.6227714 z"
       id="path8"
       style="stroke-width:0.264583;fill:#ffffff" />
    <path
       d="m 24.112479,29.678342 -3.13769,-0.460904 a 0.26458333,0.26458333 0 1 0 -0.077,0.523346 l 3.13902,0.460904 a 0.72972082,0.72972082 0 0 1 0.42333,0.254794 c -4.55401,3.034771 -11.27919,2.985029 -15.7620205,-0.150813 a 0.264648,0.264648 0 0 0 -0.30348,0.433652 c 2.3653805,1.654705 5.3318805,2.482057 8.2986605,2.482057 a 14.640454,14.640454 0 0 0 7.99994,-2.284677 0.69188541,0.69188541 0 0 1 -0.0317,0.406664 l -1.30572,2.88978 a 0.26458333,0.26458333 0 0 0 0.48207,0.218016 l 1.30572,-2.890044 a 1.4263687,1.4263687 0 0 0 -1.02923,-1.882775 z"
       id="path10"
       style="stroke-width:0.264583;fill:#ffffff" />
  </g>
</svg>
