<?xml version="1.0" encoding="UTF-8" standalone="no"?>
<!-- Created with Inkscape (http://www.inkscape.org/) -->

<svg
   width="107.80021"
   height="38.800217"
   viewBox="0 0 28.522141 10.265891"
   version="1.1"
   id="svg891"
   inkscape:version="1.2.1 (9c6d41e410, 2022-07-14)"
   sodipodi:docname="largetrades.svg"
   xmlns:inkscape="http://www.inkscape.org/namespaces/inkscape"
   xmlns:sodipodi="http://sodipodi.sourceforge.net/DTD/sodipodi-0.dtd"
   xmlns="http://www.w3.org/2000/svg"
   xmlns:svg="http://www.w3.org/2000/svg">
  <sodipodi:namedview
     id="namedview893"
     pagecolor="#ffffff"
     bordercolor="#000000"
     borderopacity="0.25"
     inkscape:showpageshadow="2"
     inkscape:pageopacity="0.0"
     inkscape:pagecheckerboard="0"
     inkscape:deskcolor="#d1d1d1"
     inkscape:document-units="px"
     showgrid="false"
     inkscape:zoom="2.3786088"
     inkscape:cx="-171.10842"
     inkscape:cy="26.48607"
     inkscape:window-width="3072"
     inkscape:window-height="1814"
     inkscape:window-x="-11"
     inkscape:window-y="-11"
     inkscape:window-maximized="1"
     inkscape:current-layer="layer1"
     showguides="true">
    <sodipodi:guide
       position="-1.4082406,6.2715393"
       orientation="1,0"
       id="guide3622"
       inkscape:locked="false" />
  </sodipodi:namedview>
  <defs
     id="defs888">
    <meshgradient
       inkscape:collect="always"
       id="meshgradient20302"
       gradientUnits="userSpaceOnUse"
       x="0.036087152"
       y="0.036087152">
      <meshrow
         id="meshrow20304">
        <meshpatch
           id="meshpatch20306">
          <stop
             path="c 9.41275,0  18.8255,0  28.2382,0"
             style="stop-color:#ffffff;stop-opacity:1"
             id="stop20308" />
          <stop
             path="c 0,3.32733  0,6.65466  0,9.98199"
             style="stop-color:#0d2e64;stop-opacity:1"
             id="stop20310" />
          <stop
             path="c -9.41275,0  -18.8255,0  -28.2382,0"
             style="stop-color:#ffffff;stop-opacity:1"
             id="stop20312" />
          <stop
             path="c 0,-3.32733  0,-6.65466  0,-9.98199"
             style="stop-color:#0d2e64;stop-opacity:1"
             id="stop20314" />
        </meshpatch>
      </meshrow>
    </meshgradient>
  </defs>
  <g
     inkscape:label="Layer 1"
     inkscape:groupmode="layer"
     id="layer1"
     transform="translate(0.10586185,0.10586185)">
    <g
       id="g22604">
      <path
         id="rect11438"
         style="opacity:1;fill:#064f99;fill-rule:evenodd;stroke:#000000;stroke-width:0.0721743"
         d="M 0.03608715,0.03608704 H 28.27433 V 10.01808 H 0.03608715 Z" />
      <path
         id="rect19574"
         style="opacity:0.24;fill:url(#meshgradient20302);fill-rule:evenodd;stroke:#000000;stroke-width:0.283898"
         d="M 0.03608715,0.03608715 H 28.27433 V 10.01808 H 0.03608715 Z" />
      <g
         aria-label="Large
Trades"
         id="text319"
         style="font-size:3.175px;fill:#ffffff;stroke-width:0.264583">
        <path
           d="M 10.237102,4.2221069 H 8.7767258 V 1.9137207 h 0.306958 v 2.0355347 h 1.1534182 z"
           id="path22608" />
        <path
           d="M 11.86646,4.2221069 H 11.576555 V 4.0376221 q -0.03876,0.026355 -0.10542,0.074414 -0.06511,0.046509 -0.127124,0.074414 -0.07286,0.035657 -0.167432,0.058911 -0.09457,0.024805 -0.221692,0.024805 -0.234094,0 -0.396875,-0.1550293 -0.16278,-0.1550293 -0.16278,-0.3953247 0,-0.1968872 0.08371,-0.31781 0.08527,-0.1224732 0.241846,-0.1922364 0.15813,-0.069763 0.379822,-0.094568 0.221692,-0.024805 0.47594,-0.037207 v -0.044958 q 0,-0.099219 -0.03566,-0.164331 -0.03411,-0.065112 -0.09922,-0.1023193 -0.06201,-0.035657 -0.148828,-0.048059 -0.08682,-0.012402 -0.181384,-0.012402 -0.114722,0 -0.255798,0.031006 -0.141077,0.029456 -0.291455,0.086816 h -0.0155 v -0.296106 q 0.08527,-0.023254 0.246496,-0.05116 0.161231,-0.027905 0.31781,-0.027905 0.182935,0 0.31781,0.031006 0.136426,0.029456 0.235645,0.1023193 0.09767,0.071314 0.148828,0.1844849 0.05116,0.1131713 0.05116,0.280603 z M 11.576555,3.7957764 V 3.3136353 q -0.133325,0.00775 -0.31471,0.023254 -0.179834,0.015503 -0.285254,0.044958 -0.125573,0.035657 -0.203088,0.111621 -0.07752,0.074414 -0.07752,0.206189 0,0.1488281 0.08992,0.2247925 0.08992,0.074414 0.274402,0.074414 0.153479,0 0.280603,-0.058911 0.127124,-0.060461 0.235645,-0.1441772 z"
           id="path22610" />
        <path
           d="m 13.50822,2.8082398 h -0.0155 q -0.06511,-0.015503 -0.127124,-0.021704 -0.06046,-0.00775 -0.144177,-0.00775 -0.134876,0 -0.26045,0.060461 -0.125573,0.058911 -0.241845,0.153479 V 4.2221069 H 12.427666 V 2.4904297 h 0.291455 V 2.746228 q 0.173633,-0.1395263 0.305407,-0.1968872 0.133326,-0.058911 0.271302,-0.058911 0.07596,0 0.110071,0.00465 0.03411,0.0031 0.102319,0.013953 z"
           id="path22612" />
        <path
           d="m 15.187187,4.0252197 q 0,0.4402832 -0.199988,0.6464722 -0.199987,0.2061889 -0.615466,0.2061889 -0.137976,0 -0.269751,-0.020154 -0.130224,-0.018603 -0.257348,-0.05426 V 4.5058105 h 0.0155 q 0.07131,0.027905 0.226342,0.068213 0.15503,0.041858 0.310059,0.041858 0.148828,0 0.246496,-0.035657 0.09767,-0.035657 0.151929,-0.099219 0.05426,-0.060462 0.07752,-0.1457276 0.02325,-0.085266 0.02325,-0.190686 V 3.9864624 q -0.131775,0.1054199 -0.252698,0.1581299 -0.119372,0.05116 -0.305407,0.05116 -0.310059,0 -0.492993,-0.2232422 -0.181385,-0.2247925 -0.181385,-0.6325196 0,-0.2232421 0.06201,-0.3844726 0.06356,-0.1627808 0.172083,-0.280603 0.100769,-0.1100708 0.244946,-0.1705322 0.144177,-0.062012 0.286804,-0.062012 0.150378,0 0.251147,0.031006 0.10232,0.029456 0.215491,0.091467 l 0.0186,-0.074414 h 0.272851 z M 14.895732,3.746167 V 2.8020386 q -0.116272,-0.05271 -0.217041,-0.074414 -0.09922,-0.023254 -0.198437,-0.023254 -0.240296,0 -0.378272,0.1612305 -0.137976,0.1612305 -0.137976,0.4681885 0,0.291455 0.102319,0.4418335 0.10232,0.1503784 0.339515,0.1503784 0.127124,0 0.254248,-0.048059 0.128674,-0.049609 0.235644,-0.1317755 z"
           id="path22614" />
        <path
           d="m 17.210319,3.386499 h -1.275891 q 0,0.1596802 0.04806,0.2790528 0.04806,0.1178222 0.131775,0.1937866 0.08062,0.074414 0.190686,0.1116211 0.111622,0.037207 0.244947,0.037207 0.176733,0 0.355017,-0.069763 0.179834,-0.071314 0.255798,-0.1395263 h 0.0155 v 0.31781 q -0.147278,0.062012 -0.300757,0.1038696 -0.153479,0.041858 -0.322461,0.041858 -0.430981,0 -0.672827,-0.232544 -0.241846,-0.2340942 -0.241846,-0.6635254 0,-0.4247802 0.230994,-0.6743774 0.232544,-0.2495972 0.610816,-0.2495972 0.350366,0 0.539501,0.2046387 0.190686,0.2046387 0.190686,0.5813599 z M 16.926616,3.1632569 Q 16.925066,2.9338135 16.810344,2.8082398 16.697173,2.682666 16.464629,2.682666 q -0.234095,0 -0.373621,0.1379761 -0.137976,0.1379761 -0.15658,0.3426148 z"
           id="path22616" />
        <path
           d="M 10.423137,6.1553222 H 9.598381 V 8.1908569 H 9.291423 V 6.1553222 H 8.4666672 V 5.8824707 h 1.9564698 z"
           id="path22618" />
        <path
           d="m 11.480437,6.7769897 h -0.0155 q -0.06511,-0.015503 -0.127124,-0.021704 -0.06046,-0.00775 -0.144178,-0.00775 -0.134875,0 -0.260449,0.060461 -0.125574,0.058911 -0.241845,0.153479 V 8.1908569 H 10.399882 V 6.4591797 h 0.291456 V 6.714978 q 0.173632,-0.1395264 0.305407,-0.1968872 0.133325,-0.058911 0.271301,-0.058911 0.07597,0 0.110071,0.00465 0.03411,0.0031 0.10232,0.013953 z"
           id="path22620" />
        <path
           d="M 13.044682,8.1908569 H 12.754778 V 8.006372 q -0.03876,0.026355 -0.10542,0.074414 -0.06511,0.046509 -0.127124,0.074414 -0.07286,0.035657 -0.167432,0.058911 -0.09457,0.024805 -0.221692,0.024805 -0.234094,0 -0.396875,-0.1550293 -0.162781,-0.1550293 -0.162781,-0.3953247 0,-0.1968872 0.08372,-0.3178101 0.08527,-0.1224731 0.241846,-0.1922363 0.15813,-0.069763 0.379822,-0.094568 0.221691,-0.024805 0.47594,-0.037207 v -0.044958 q 0,-0.099219 -0.03566,-0.1643311 -0.03411,-0.065112 -0.09922,-0.1023193 -0.06201,-0.035657 -0.148828,-0.048059 -0.08682,-0.012402 -0.181384,-0.012402 -0.114722,0 -0.255799,0.031006 -0.141076,0.029456 -0.291455,0.086816 h -0.0155 V 6.4963867 q 0.08527,-0.023254 0.246497,-0.05116 0.16123,-0.027905 0.31781,-0.027905 0.182934,0 0.31781,0.031006 0.136426,0.029456 0.235644,0.1023193 0.09767,0.071313 0.148829,0.1844849 0.05116,0.1131714 0.05116,0.280603 z M 12.754778,7.7645263 V 7.2823852 q -0.133326,0.00775 -0.31471,0.023254 -0.179834,0.015503 -0.285254,0.044958 -0.125574,0.035657 -0.203088,0.1116211 -0.07752,0.074414 -0.07752,0.206189 0,0.1488281 0.08992,0.2247924 0.08992,0.074414 0.274402,0.074414 0.153479,0 0.280603,-0.058911 0.127124,-0.060461 0.235645,-0.1441773 z"
           id="path22622" />
        <path
           d="M 15.010454,8.1908569 H 14.718999 V 8.0094726 q -0.125574,0.1085205 -0.262,0.1689819 -0.136426,0.060461 -0.296106,0.060461 -0.310058,0 -0.492993,-0.2387452 -0.181384,-0.2387451 -0.181384,-0.661975 0,-0.2201416 0.06201,-0.3922242 0.06356,-0.1720825 0.170532,-0.2930053 0.10542,-0.1178223 0.244946,-0.179834 0.141077,-0.062012 0.291455,-0.062012 0.136426,0 0.241846,0.029456 0.10542,0.027905 0.221692,0.088367 V 5.7786011 h 0.291455 z M 14.718999,7.7645263 V 6.7707885 q -0.117823,-0.05271 -0.21084,-0.072864 -0.09302,-0.020154 -0.203089,-0.020154 -0.244946,0 -0.381372,0.1705322 -0.136425,0.1705322 -0.136425,0.4836914 0,0.3085083 0.10542,0.4697387 0.105419,0.1596802 0.337963,0.1596802 0.124024,0 0.251148,-0.05426 0.127124,-0.055811 0.237195,-0.1426267 z"
           id="path22624" />
        <path
           d="m 17.033586,7.355249 h -1.275891 q 0,0.1596801 0.04806,0.2790527 0.04806,0.1178223 0.131775,0.1937866 0.08061,0.074414 0.190686,0.1116211 0.111621,0.037207 0.244946,0.037207 0.176734,0 0.355017,-0.069763 0.179834,-0.071314 0.255799,-0.1395264 h 0.0155 v 0.31781 q -0.147278,0.062012 -0.300757,0.1038696 -0.153479,0.041858 -0.322461,0.041858 -0.430982,0 -0.672827,-0.232544 -0.241846,-0.2340942 -0.241846,-0.6635253 0,-0.4247803 0.230994,-0.6743775 0.232544,-0.2495971 0.610815,-0.2495971 0.350366,0 0.539502,0.2046386 0.190686,0.2046387 0.190686,0.5813599 z M 16.749882,7.1320068 Q 16.748332,6.9025634 16.63361,6.7769897 16.520439,6.651416 16.287895,6.651416 q -0.234094,0 -0.373621,0.1379761 -0.137976,0.137976 -0.156579,0.3426147 z"
           id="path22626" />
        <path
           d="m 18.712554,7.6916625 q 0,0.2371949 -0.196887,0.3891236 -0.195337,0.1519287 -0.534852,0.1519287 -0.192236,0 -0.353466,-0.044958 -0.15968,-0.046509 -0.268201,-0.1007691 V 7.7598754 h 0.0155 q 0.137976,0.1038697 0.306958,0.1658814 0.168982,0.060461 0.324011,0.060461 0.192237,0 0.300757,-0.062012 0.108521,-0.062012 0.108521,-0.1953369 0,-0.1023194 -0.05891,-0.1550293 -0.05891,-0.05271 -0.226342,-0.089917 -0.06201,-0.013953 -0.162781,-0.032556 -0.09922,-0.018603 -0.181384,-0.040308 -0.227893,-0.060461 -0.324012,-0.1767334 -0.09457,-0.1178222 -0.09457,-0.2883545 0,-0.1069702 0.04341,-0.201538 0.04496,-0.094568 0.134875,-0.168982 0.08682,-0.072864 0.220142,-0.1147217 0.134875,-0.043408 0.300757,-0.043408 0.155029,0 0.313159,0.038757 0.15968,0.037207 0.2651,0.091467 v 0.3116088 h -0.0155 q -0.111621,-0.082166 -0.271301,-0.137976 -0.15968,-0.057361 -0.313159,-0.057361 -0.159681,0 -0.269751,0.062012 -0.110071,0.060461 -0.110071,0.1813843 0,0.1069702 0.06666,0.1612305 0.06511,0.05426 0.21084,0.088367 0.08062,0.018604 0.179834,0.037207 0.100769,0.018603 0.167432,0.034107 0.203088,0.046509 0.313159,0.1596801 0.110071,0.1147217 0.110071,0.3038574 z"
           id="path22628" />
      </g>
      <g
         style="fill:#ffffff;fill-opacity:1;fill-rule:nonzero;stroke:none;stroke-width:0;stroke-linecap:butt;stroke-linejoin:miter;stroke-miterlimit:10;stroke-dasharray:none"
         transform="matrix(0.02842334,0,0,0.02221745,1.2425419,6.1490542)"
         id="g349">
	<path
   d="m 53.207,22.455 c 0.414,0 0.75,0.336 0.75,0.75 V 87.25 c 0,0.414 -0.336,0.75 -0.75,0.75 H 36.793 c -0.414,0 -0.75,-0.336 -0.75,-0.75 V 23.205 c 0,-0.414 0.336,-0.75 0.75,-0.75 h 16.414 m 0,-2 H 36.793 c -1.519,0 -2.75,1.231 -2.75,2.75 V 87.25 c 0,1.519 1.231,2.75 2.75,2.75 h 16.414 c 1.519,0 2.75,-1.231 2.75,-2.75 V 23.205 c 0,-1.519 -1.231,-2.75 -2.75,-2.75 z"
   style="opacity:1;fill:#ffffff;fill-opacity:1;fill-rule:nonzero;stroke:none;stroke-width:1;stroke-linecap:butt;stroke-linejoin:miter;stroke-miterlimit:10;stroke-dasharray:none"
   stroke-linecap="round"
   id="path325" />

	<path
   d="M 81.611,90 H 65.197 c -1.519,0 -2.75,-1.231 -2.75,-2.75 V 2.75 C 62.447,1.231 63.678,0 65.197,0 h 16.414 c 1.519,0 2.75,1.231 2.75,2.75 v 84.5 c 0,1.519 -1.231,2.75 -2.75,2.75 z"
   style="opacity:1;fill:#ffffff;fill-opacity:1;fill-rule:nonzero;stroke:none;stroke-width:1;stroke-linecap:butt;stroke-linejoin:miter;stroke-miterlimit:10;stroke-dasharray:none"
   stroke-linecap="round"
   id="path327" />

	<path
   d="m 24.803,42.909 c 0.414,0 0.75,0.336 0.75,0.75 V 87.25 c 0,0.414 -0.336,0.75 -0.75,0.75 H 8.389 C 7.975,88 7.639,87.664 7.639,87.25 V 43.659 c 0,-0.414 0.336,-0.75 0.75,-0.75 h 16.414 m 0,-2 H 8.389 c -1.519,0 -2.75,1.231 -2.75,2.75 V 87.25 c 0,1.519 1.231,2.75 2.75,2.75 h 16.414 c 1.519,0 2.75,-1.231 2.75,-2.75 V 43.659 c 0,-1.519 -1.231,-2.75 -2.75,-2.75 z"
   style="opacity:1;fill:#ffffff;fill-opacity:1;fill-rule:nonzero;stroke:none;stroke-width:1;stroke-linecap:butt;stroke-linejoin:miter;stroke-miterlimit:10;stroke-dasharray:none"
   stroke-linecap="round"
   id="path329" />

	<path
   id="polygon331"
   style="opacity:1;stroke-width:1"
   d="M 34.94,82.53 55.08,74.68 V 72.53 L 34.94,80.39 Z" />

	<path
   id="polygon333"
   style="opacity:1;stroke-width:1"
   d="M 34.94,74.53 55.08,66.68 V 64.53 L 34.94,72.39 Z" />

	<path
   id="polygon335"
   style="opacity:1;stroke-width:1"
   d="M 34.94,66.53 55.08,58.68 V 56.53 L 34.94,64.39 Z" />

	<path
   id="polygon337"
   style="opacity:1;stroke-width:1"
   d="M 34.94,58.53 55.08,50.68 V 48.53 L 34.94,56.39 Z" />

	<path
   id="polygon339"
   style="opacity:1;stroke-width:1"
   d="M 34.94,50.53 55.08,42.68 V 40.53 L 34.94,48.39 Z" />

	<path
   id="polygon341"
   style="opacity:1;stroke-width:1"
   d="M 34.94,42.53 55.08,34.68 V 32.53 L 34.94,40.39 Z" />

	<path
   id="polygon343"
   style="opacity:1;stroke-width:1"
   d="M 34.94,34.53 55.08,26.68 V 24.53 L 34.94,32.39 Z" />

	<path
   id="polygon345"
   style="opacity:1;stroke-width:1"
   d="m 34.94,24.39 v 2.14 l 13.08,-5.1 h -5.51 z" />

	<path
   id="polygon347"
   style="opacity:1;stroke-width:1"
   d="m 55.08,80.53 -20.14,7.86 v 0.76 h 3.53 l 16.61,-6.47 z" />

</g>
      <path
         d="m 3.1261303,8.1361753 h 0.6691901 c 0.061937,0 0.1121181,-0.038881 0.1121181,-0.086859 V 5.3803611 c 0,-0.047977 -0.050201,-0.08686 -0.1121181,-0.08686 H 3.1261303 c -0.061914,0 -0.1121181,0.038881 -0.1121181,0.08686 v 2.6689548 c 0,0.047978 0.050201,0.086859 0.1121181,0.086859 z"
         style="fill:#ffffff;fill-opacity:1;fill-rule:nonzero;stroke:none;stroke-width:0.0358847;stroke-linecap:butt;stroke-linejoin:miter;stroke-miterlimit:10;stroke-dasharray:none"
         stroke-linecap="round"
         id="path465" />
      <path
         d="m 5.4730686,7.0855132 c 0.012378,0 0.022413,0.00756 0.022413,0.016886 v 0.9814441 c 0,0.00932 -0.010035,0.016887 -0.022413,0.016887 H 4.9826108 c -0.012378,0 -0.022413,-0.00756 -0.022413,-0.016887 V 7.1023994 c 0,-0.00932 0.010035,-0.016886 0.022413,-0.016886 h 0.4904578 m 0,-0.04503 H 4.9826108 c -0.045374,0 -0.082177,0.027716 -0.082177,0.061916 v 0.9814443 c 0,0.0342 0.036771,0.061916 0.082177,0.061916 h 0.4904578 c 0.045374,0 0.082175,-0.027716 0.082175,-0.061916 V 7.1023994 c 0,-0.034201 -0.036771,-0.061916 -0.082175,-0.061916 z"
         style="fill:#ffffff;fill-opacity:1;fill-rule:nonzero;stroke:none;stroke-width:0.0259372;stroke-linecap:butt;stroke-linejoin:miter;stroke-miterlimit:10;stroke-dasharray:none"
         stroke-linecap="round"
         id="path2254" />
      <g
         style="fill:#ffffff;fill-opacity:1;fill-rule:nonzero;stroke:#000000;stroke-width:0;stroke-linecap:butt;stroke-linejoin:miter;stroke-miterlimit:10;stroke-dasharray:none;stroke-opacity:1"
         transform="matrix(0.05034713,0,0,0.0393542,2.6867998,1.7897223)"
         id="g2364">
	<path
   d="m 46.484,51.072 c 3.172,-0.683 5.557,-3.507 5.557,-6.88 0,-3.358 -2.317,-6.189 -5.557,-6.878 z"
   style="opacity:1;fill:#ffffff;fill-opacity:1;fill-rule:nonzero;stroke:#000000;stroke-width:0;stroke-linecap:butt;stroke-linejoin:miter;stroke-miterlimit:10;stroke-dasharray:none;stroke-opacity:1"
   stroke-linecap="round"
   id="path2358" />

	<path
   d="m 37.959,26.822 c 0,3.358 2.317,6.188 5.558,6.878 V 19.941 c -3.173,0.683 -5.558,3.507 -5.558,6.881 z"
   style="opacity:1;fill:#ffffff;fill-opacity:1;fill-rule:nonzero;stroke:#000000;stroke-width:0;stroke-linecap:butt;stroke-linejoin:miter;stroke-miterlimit:10;stroke-dasharray:none;stroke-opacity:1"
   stroke-linecap="round"
   id="path2360" />

	<path
   d="M 86.181,3.998 H 3.819 C 1.71,3.998 0,5.708 0,7.817 v 55.461 c 0,2.109 1.71,3.819 3.819,3.819 H 13.948 V 86.001 L 33.21,67.098 h 52.97 c 2.109,0 3.819,-1.71 3.819,-3.819 V 7.817 C 90,5.708 88.29,3.998 86.181,3.998 Z M 46.625,34.315 c 4.836,0.764 8.382,4.922 8.382,9.876 0,5.013 -3.709,9.165 -8.524,9.885 v 2.828 c 0,0.819 -0.664,1.483 -1.484,1.483 -0.82,0 -1.484,-0.664 -1.484,-1.483 v -2.828 c -4.816,-0.721 -8.525,-4.872 -8.525,-9.885 0,-0.82 0.664,-1.484 1.484,-1.484 0.82,0 1.484,0.664 1.484,1.484 0,3.373 2.386,6.197 5.558,6.88 V 36.723 c -0.04,-0.007 -0.074,-0.014 -0.116,-0.021 -4.862,-0.769 -8.409,-4.927 -8.409,-9.881 0,-5.013 3.709,-9.165 8.525,-9.886 v -2.747 c 0,-0.82 0.664,-1.484 1.484,-1.484 0.82,0 1.484,0.664 1.484,1.484 v 2.747 c 4.816,0.721 8.524,4.873 8.524,9.886 0,0.82 -0.664,1.484 -1.484,1.484 -0.82,0 -1.484,-0.664 -1.484,-1.484 0,-3.373 -2.385,-6.198 -5.557,-6.881 v 14.347 c 0.05,0.01 0.09,0.018 0.142,0.028 z"
   style="opacity:1;fill:#ffffff;fill-opacity:1;fill-rule:nonzero;stroke:#000000;stroke-width:0;stroke-linecap:butt;stroke-linejoin:miter;stroke-miterlimit:10;stroke-dasharray:none;stroke-opacity:1"
   stroke-linecap="round"
   id="path2362-3" />

</g>
      <path
         id="rect11294"
         style="fill:#ffffff;fill-rule:evenodd;stroke:#000000;stroke-width:0.132292"
         inkscape:transform-center-x="0.20278374"
         inkscape:transform-center-y="0.43321995"
         d="m 22.850827,2.9558499 h 2.799377 c 0.401482,0 0.724697,0.3232151 0.724697,0.7246976 v 2.825448 c 0,0.4014825 -0.323215,0.7246976 -0.724697,0.7246976 h -2.799377 c -0.401483,0 -0.724698,-0.3232151 -0.724698,-0.7246976 v -2.825448 c 0,-0.4014825 0.323215,-0.7246976 0.724698,-0.7246976 z" />
      <g
         aria-label="ON"
         id="text11302"
         style="font-weight:bold;font-size:2.11667px;-inkscape-font-specification:'sans-serif Bold';fill-opacity:0.980344;fill-rule:evenodd;stroke:#000000;stroke-width:0">
        <path
           d="m 22.774554,5.0611739 q 0,-0.323495 0.176734,-0.5467375 0.177767,-0.2242761 0.47439,-0.2242761 0.326596,0 0.499195,0.2025719 0.1726,0.202572 0.1726,0.5684417 0,0.3658697 -0.180868,0.5808439 -0.179834,0.2149743 -0.511598,0.2149743 -0.304891,0 -0.468189,-0.2129072 -0.162264,-0.2129072 -0.162264,-0.582911 z m 0.279053,0 q 0,0.2656172 0.08992,0.411345 0.08992,0.1457277 0.261483,0.1457277 0.201539,0 0.306959,-0.1426271 0.106454,-0.1426272 0.106454,-0.4144456 0,-0.5322681 -0.392742,-0.5322681 -0.179834,0 -0.275952,0.1446942 -0.09612,0.1436607 -0.09612,0.3875739 z"
           style="font-family:'Trebuchet MS';-inkscape-font-specification:'Trebuchet MS Bold'"
           id="path22641" />
        <path
           d="M 25.328407,5.8518245 24.593567,4.893742 V 5.8321874 H 24.335185 V 4.3170321 h 0.129191 l 0.715203,0.9136407 V 4.3170321 h 0.258382 v 1.5347924 z"
           style="font-family:'Trebuchet MS';-inkscape-font-specification:'Trebuchet MS Bold'"
           id="path22643" />
      </g>
      <path
         d="m 4.679233,7.4154527 c 0.012378,0 0.022413,0.00522 0.022413,0.011632 v 0.6759192 c 0,0.00646 -0.010035,0.011633 -0.022413,0.011633 H 4.1887752 c -0.012378,0 -0.022413,-0.00522 -0.022413,-0.011633 V 7.4270825 c 0,-0.00646 0.010035,-0.011632 0.022413,-0.011632 H 4.679233 m 0,-0.031011 H 4.1887752 c -0.045374,0 -0.082177,0.019087 -0.082177,0.042643 v 0.6759193 c 0,0.023549 0.036771,0.042644 0.082177,0.042644 H 4.679233 c 0.045374,0 0.082175,-0.019089 0.082175,-0.042644 V 7.4270822 c 0,-0.02355 -0.036771,-0.042643 -0.082175,-0.042643 z"
         style="fill:#ffffff;fill-opacity:1;fill-rule:nonzero;stroke:none;stroke-width:0.0215247;stroke-linecap:butt;stroke-linejoin:miter;stroke-miterlimit:10;stroke-dasharray:none"
         stroke-linecap="round"
         id="path19558" />
    </g>
  </g>
  <script
     id="mesh_polyfill"
     type="text/javascript">
!function(){const t=&quot;http://www.w3.org/2000/svg&quot;,e=&quot;http://www.w3.org/1999/xlink&quot;,s=&quot;http://www.w3.org/1999/xhtml&quot;,r=2;if(document.createElementNS(t,&quot;meshgradient&quot;).x)return;const n=(t,e,s,r)=&gt;{let n=new x(.5*(e.x+s.x),.5*(e.y+s.y)),o=new x(.5*(t.x+e.x),.5*(t.y+e.y)),i=new x(.5*(s.x+r.x),.5*(s.y+r.y)),a=new x(.5*(n.x+o.x),.5*(n.y+o.y)),h=new x(.5*(n.x+i.x),.5*(n.y+i.y)),l=new x(.5*(a.x+h.x),.5*(a.y+h.y));return[[t,o,a,l],[l,h,i,r]]},o=t=&gt;{let e=t[0].distSquared(t[1]),s=t[2].distSquared(t[3]),r=.25*t[0].distSquared(t[2]),n=.25*t[1].distSquared(t[3]),o=e&gt;s?e:s,i=r&gt;n?r:n;return 18*(o&gt;i?o:i)},i=(t,e)=&gt;Math.sqrt(t.distSquared(e)),a=(t,e)=&gt;t.scale(2/3).add(e.scale(1/3)),h=t=&gt;{let e,s,r,n,o,i,a,h=new g;return t.match(/(\w+\(\s*[^)]+\))+/g).forEach(t=&gt;{let l=t.match(/[\w.-]+/g),d=l.shift();switch(d){case&quot;translate&quot;:2===l.length?e=new g(1,0,0,1,l[0],l[1]):(console.error(&quot;mesh.js: translate does not have 2 arguments!&quot;),e=new g(1,0,0,1,0,0)),h=h.append(e);break;case&quot;scale&quot;:1===l.length?s=new g(l[0],0,0,l[0],0,0):2===l.length?s=new g(l[0],0,0,l[1],0,0):(console.error(&quot;mesh.js: scale does not have 1 or 2 arguments!&quot;),s=new g(1,0,0,1,0,0)),h=h.append(s);break;case&quot;rotate&quot;:if(3===l.length&amp;&amp;(e=new g(1,0,0,1,l[1],l[2]),h=h.append(e)),l[0]){r=l[0]*Math.PI/180;let t=Math.cos(r),e=Math.sin(r);Math.abs(t)&lt;1e-16&amp;&amp;(t=0),Math.abs(e)&lt;1e-16&amp;&amp;(e=0),a=new g(t,e,-e,t,0,0),h=h.append(a)}else console.error(&quot;math.js: No argument to rotate transform!&quot;);3===l.length&amp;&amp;(e=new g(1,0,0,1,-l[1],-l[2]),h=h.append(e));break;case&quot;skewX&quot;:l[0]?(r=l[0]*Math.PI/180,n=Math.tan(r),o=new g(1,0,n,1,0,0),h=h.append(o)):console.error(&quot;math.js: No argument to skewX transform!&quot;);break;case&quot;skewY&quot;:l[0]?(r=l[0]*Math.PI/180,n=Math.tan(r),i=new g(1,n,0,1,0,0),h=h.append(i)):console.error(&quot;math.js: No argument to skewY transform!&quot;);break;case&quot;matrix&quot;:6===l.length?h=h.append(new g(...l)):console.error(&quot;math.js: Incorrect number of arguments for matrix!&quot;);break;default:console.error(&quot;mesh.js: Unhandled transform type: &quot;+d)}}),h},l=t=&gt;{let e=[],s=t.split(/[ ,]+/);for(let t=0,r=s.length-1;t&lt;r;t+=2)e.push(new x(parseFloat(s[t]),parseFloat(s[t+1])));return e},d=(t,e)=&gt;{for(let s in e)t.setAttribute(s,e[s])},c=(t,e,s,r,n)=&gt;{let o,i,a=[0,0,0,0];for(let h=0;h&lt;3;++h)e[h]&lt;t[h]&amp;&amp;e[h]&lt;s[h]||t[h]&lt;e[h]&amp;&amp;s[h]&lt;e[h]?a[h]=0:(a[h]=.5*((e[h]-t[h])/r+(s[h]-e[h])/n),o=Math.abs(3*(e[h]-t[h])/r),i=Math.abs(3*(s[h]-e[h])/n),a[h]&gt;o?a[h]=o:a[h]&gt;i&amp;&amp;(a[h]=i));return a},u=[[1,0,0,0,0,0,0,0,0,0,0,0,0,0,0,0],[0,0,0,0,1,0,0,0,0,0,0,0,0,0,0,0],[-3,3,0,0,-2,-1,0,0,0,0,0,0,0,0,0,0],[2,-2,0,0,1,1,0,0,0,0,0,0,0,0,0,0],[0,0,0,0,0,0,0,0,1,0,0,0,0,0,0,0],[0,0,0,0,0,0,0,0,0,0,0,0,1,0,0,0],[0,0,0,0,0,0,0,0,-3,3,0,0,-2,-1,0,0],[0,0,0,0,0,0,0,0,2,-2,0,0,1,1,0,0],[-3,0,3,0,0,0,0,0,-2,0,-1,0,0,0,0,0],[0,0,0,0,-3,0,3,0,0,0,0,0,-2,0,-1,0],[9,-9,-9,9,6,3,-6,-3,6,-6,3,-3,4,2,2,1],[-6,6,6,-6,-3,-3,3,3,-4,4,-2,2,-2,-2,-1,-1],[2,0,-2,0,0,0,0,0,1,0,1,0,0,0,0,0],[0,0,0,0,2,0,-2,0,0,0,0,0,1,0,1,0],[-6,6,6,-6,-4,-2,4,2,-3,3,-3,3,-2,-1,-2,-1],[4,-4,-4,4,2,2,-2,-2,2,-2,2,-2,1,1,1,1]],f=t=&gt;{let e=[];for(let s=0;s&lt;16;++s){e[s]=0;for(let r=0;r&lt;16;++r)e[s]+=u[s][r]*t[r]}return e},p=(t,e,s)=&gt;{const r=e*e,n=s*s,o=e*e*e,i=s*s*s;return t[0]+t[1]*e+t[2]*r+t[3]*o+t[4]*s+t[5]*s*e+t[6]*s*r+t[7]*s*o+t[8]*n+t[9]*n*e+t[10]*n*r+t[11]*n*o+t[12]*i+t[13]*i*e+t[14]*i*r+t[15]*i*o},y=t=&gt;{let e=[],s=[],r=[];for(let s=0;s&lt;4;++s)e[s]=[],e[s][0]=n(t[0][s],t[1][s],t[2][s],t[3][s]),e[s][1]=[],e[s][1].push(...n(...e[s][0][0])),e[s][1].push(...n(...e[s][0][1])),e[s][2]=[],e[s][2].push(...n(...e[s][1][0])),e[s][2].push(...n(...e[s][1][1])),e[s][2].push(...n(...e[s][1][2])),e[s][2].push(...n(...e[s][1][3]));for(let t=0;t&lt;8;++t){s[t]=[];for(let r=0;r&lt;4;++r)s[t][r]=[],s[t][r][0]=n(e[0][2][t][r],e[1][2][t][r],e[2][2][t][r],e[3][2][t][r]),s[t][r][1]=[],s[t][r][1].push(...n(...s[t][r][0][0])),s[t][r][1].push(...n(...s[t][r][0][1])),s[t][r][2]=[],s[t][r][2].push(...n(...s[t][r][1][0])),s[t][r][2].push(...n(...s[t][r][1][1])),s[t][r][2].push(...n(...s[t][r][1][2])),s[t][r][2].push(...n(...s[t][r][1][3]))}for(let t=0;t&lt;8;++t){r[t]=[];for(let e=0;e&lt;8;++e)r[t][e]=[],r[t][e][0]=s[t][0][2][e],r[t][e][1]=s[t][1][2][e],r[t][e][2]=s[t][2][2][e],r[t][e][3]=s[t][3][2][e]}return r};class x{constructor(t,e){this.x=t||0,this.y=e||0}toString(){return`(x=${this.x}, y=${this.y})`}clone(){return new x(this.x,this.y)}add(t){return new x(this.x+t.x,this.y+t.y)}scale(t){return void 0===t.x?new x(this.x*t,this.y*t):new x(this.x*t.x,this.y*t.y)}distSquared(t){let e=this.x-t.x,s=this.y-t.y;return e*e+s*s}transform(t){let e=this.x*t.a+this.y*t.c+t.e,s=this.x*t.b+this.y*t.d+t.f;return new x(e,s)}}class g{constructor(t,e,s,r,n,o){void 0===t?(this.a=1,this.b=0,this.c=0,this.d=1,this.e=0,this.f=0):(this.a=t,this.b=e,this.c=s,this.d=r,this.e=n,this.f=o)}toString(){return`affine: ${this.a} ${this.c} ${this.e} \n       ${this.b} ${this.d} ${this.f}`}append(t){t instanceof g||console.error(&quot;mesh.js: argument to Affine.append is not affine!&quot;);let e=this.a*t.a+this.c*t.b,s=this.b*t.a+this.d*t.b,r=this.a*t.c+this.c*t.d,n=this.b*t.c+this.d*t.d,o=this.a*t.e+this.c*t.f+this.e,i=this.b*t.e+this.d*t.f+this.f;return new g(e,s,r,n,o,i)}}class w{constructor(t,e){this.nodes=t,this.colors=e}paintCurve(t,e){if(o(this.nodes)&gt;r){const s=n(...this.nodes);let r=[[],[]],o=[[],[]];for(let t=0;t&lt;4;++t)r[0][t]=this.colors[0][t],r[1][t]=(this.colors[0][t]+this.colors[1][t])/2,o[0][t]=r[1][t],o[1][t]=this.colors[1][t];let i=new w(s[0],r),a=new w(s[1],o);i.paintCurve(t,e),a.paintCurve(t,e)}else{let s=Math.round(this.nodes[0].x);if(s&gt;=0&amp;&amp;s&lt;e){let r=4*(~~this.nodes[0].y*e+s);t[r]=Math.round(this.colors[0][0]),t[r+1]=Math.round(this.colors[0][1]),t[r+2]=Math.round(this.colors[0][2]),t[r+3]=Math.round(this.colors[0][3])}}}}class m{constructor(t,e){this.nodes=t,this.colors=e}split(){let t=[[],[],[],[]],e=[[],[],[],[]],s=[[[],[]],[[],[]]],r=[[[],[]],[[],[]]];for(let s=0;s&lt;4;++s){const r=n(this.nodes[0][s],this.nodes[1][s],this.nodes[2][s],this.nodes[3][s]);t[0][s]=r[0][0],t[1][s]=r[0][1],t[2][s]=r[0][2],t[3][s]=r[0][3],e[0][s]=r[1][0],e[1][s]=r[1][1],e[2][s]=r[1][2],e[3][s]=r[1][3]}for(let t=0;t&lt;4;++t)s[0][0][t]=this.colors[0][0][t],s[0][1][t]=this.colors[0][1][t],s[1][0][t]=(this.colors[0][0][t]+this.colors[1][0][t])/2,s[1][1][t]=(this.colors[0][1][t]+this.colors[1][1][t])/2,r[0][0][t]=s[1][0][t],r[0][1][t]=s[1][1][t],r[1][0][t]=this.colors[1][0][t],r[1][1][t]=this.colors[1][1][t];return[new m(t,s),new m(e,r)]}paint(t,e){let s,n=!1;for(let t=0;t&lt;4;++t)if((s=o([this.nodes[0][t],this.nodes[1][t],this.nodes[2][t],this.nodes[3][t]]))&gt;r){n=!0;break}if(n){let s=this.split();s[0].paint(t,e),s[1].paint(t,e)}else{new w([...this.nodes[0]],[...this.colors[0]]).paintCurve(t,e)}}}class b{constructor(t){this.readMesh(t),this.type=t.getAttribute(&quot;type&quot;)||&quot;bilinear&quot;}readMesh(t){let e=[[]],s=[[]],r=Number(t.getAttribute(&quot;x&quot;)),n=Number(t.getAttribute(&quot;y&quot;));e[0][0]=new x(r,n);let o=t.children;for(let t=0,r=o.length;t&lt;r;++t){e[3*t+1]=[],e[3*t+2]=[],e[3*t+3]=[],s[t+1]=[];let r=o[t].children;for(let n=0,o=r.length;n&lt;o;++n){let o=r[n].children;for(let r=0,i=o.length;r&lt;i;++r){let i=r;0!==t&amp;&amp;++i;let h,d=o[r].getAttribute(&quot;path&quot;),c=&quot;l&quot;;null!=d&amp;&amp;(c=(h=d.match(/\s*([lLcC])\s*(.*)/))[1]);let u=l(h[2]);switch(c){case&quot;l&quot;:0===i?(e[3*t][3*n+3]=u[0].add(e[3*t][3*n]),e[3*t][3*n+1]=a(e[3*t][3*n],e[3*t][3*n+3]),e[3*t][3*n+2]=a(e[3*t][3*n+3],e[3*t][3*n])):1===i?(e[3*t+3][3*n+3]=u[0].add(e[3*t][3*n+3]),e[3*t+1][3*n+3]=a(e[3*t][3*n+3],e[3*t+3][3*n+3]),e[3*t+2][3*n+3]=a(e[3*t+3][3*n+3],e[3*t][3*n+3])):2===i?(0===n&amp;&amp;(e[3*t+3][3*n+0]=u[0].add(e[3*t+3][3*n+3])),e[3*t+3][3*n+1]=a(e[3*t+3][3*n],e[3*t+3][3*n+3]),e[3*t+3][3*n+2]=a(e[3*t+3][3*n+3],e[3*t+3][3*n])):(e[3*t+1][3*n]=a(e[3*t][3*n],e[3*t+3][3*n]),e[3*t+2][3*n]=a(e[3*t+3][3*n],e[3*t][3*n]));break;case&quot;L&quot;:0===i?(e[3*t][3*n+3]=u[0],e[3*t][3*n+1]=a(e[3*t][3*n],e[3*t][3*n+3]),e[3*t][3*n+2]=a(e[3*t][3*n+3],e[3*t][3*n])):1===i?(e[3*t+3][3*n+3]=u[0],e[3*t+1][3*n+3]=a(e[3*t][3*n+3],e[3*t+3][3*n+3]),e[3*t+2][3*n+3]=a(e[3*t+3][3*n+3],e[3*t][3*n+3])):2===i?(0===n&amp;&amp;(e[3*t+3][3*n+0]=u[0]),e[3*t+3][3*n+1]=a(e[3*t+3][3*n],e[3*t+3][3*n+3]),e[3*t+3][3*n+2]=a(e[3*t+3][3*n+3],e[3*t+3][3*n])):(e[3*t+1][3*n]=a(e[3*t][3*n],e[3*t+3][3*n]),e[3*t+2][3*n]=a(e[3*t+3][3*n],e[3*t][3*n]));break;case&quot;c&quot;:0===i?(e[3*t][3*n+1]=u[0].add(e[3*t][3*n]),e[3*t][3*n+2]=u[1].add(e[3*t][3*n]),e[3*t][3*n+3]=u[2].add(e[3*t][3*n])):1===i?(e[3*t+1][3*n+3]=u[0].add(e[3*t][3*n+3]),e[3*t+2][3*n+3]=u[1].add(e[3*t][3*n+3]),e[3*t+3][3*n+3]=u[2].add(e[3*t][3*n+3])):2===i?(e[3*t+3][3*n+2]=u[0].add(e[3*t+3][3*n+3]),e[3*t+3][3*n+1]=u[1].add(e[3*t+3][3*n+3]),0===n&amp;&amp;(e[3*t+3][3*n+0]=u[2].add(e[3*t+3][3*n+3]))):(e[3*t+2][3*n]=u[0].add(e[3*t+3][3*n]),e[3*t+1][3*n]=u[1].add(e[3*t+3][3*n]));break;case&quot;C&quot;:0===i?(e[3*t][3*n+1]=u[0],e[3*t][3*n+2]=u[1],e[3*t][3*n+3]=u[2]):1===i?(e[3*t+1][3*n+3]=u[0],e[3*t+2][3*n+3]=u[1],e[3*t+3][3*n+3]=u[2]):2===i?(e[3*t+3][3*n+2]=u[0],e[3*t+3][3*n+1]=u[1],0===n&amp;&amp;(e[3*t+3][3*n+0]=u[2])):(e[3*t+2][3*n]=u[0],e[3*t+1][3*n]=u[1]);break;default:console.error(&quot;mesh.js: &quot;+c+&quot; invalid path type.&quot;)}if(0===t&amp;&amp;0===n||r&gt;0){let e=window.getComputedStyle(o[r]).stopColor.match(/^rgb\s*\(\s*(\d+)\s*,\s*(\d+)\s*,\s*(\d+)\s*\)$/i),a=window.getComputedStyle(o[r]).stopOpacity,h=255;a&amp;&amp;(h=Math.floor(255*a)),e&amp;&amp;(0===i?(s[t][n]=[],s[t][n][0]=Math.floor(e[1]),s[t][n][1]=Math.floor(e[2]),s[t][n][2]=Math.floor(e[3]),s[t][n][3]=h):1===i?(s[t][n+1]=[],s[t][n+1][0]=Math.floor(e[1]),s[t][n+1][1]=Math.floor(e[2]),s[t][n+1][2]=Math.floor(e[3]),s[t][n+1][3]=h):2===i?(s[t+1][n+1]=[],s[t+1][n+1][0]=Math.floor(e[1]),s[t+1][n+1][1]=Math.floor(e[2]),s[t+1][n+1][2]=Math.floor(e[3]),s[t+1][n+1][3]=h):3===i&amp;&amp;(s[t+1][n]=[],s[t+1][n][0]=Math.floor(e[1]),s[t+1][n][1]=Math.floor(e[2]),s[t+1][n][2]=Math.floor(e[3]),s[t+1][n][3]=h))}}e[3*t+1][3*n+1]=new x,e[3*t+1][3*n+2]=new x,e[3*t+2][3*n+1]=new x,e[3*t+2][3*n+2]=new x,e[3*t+1][3*n+1].x=(-4*e[3*t][3*n].x+6*(e[3*t][3*n+1].x+e[3*t+1][3*n].x)+-2*(e[3*t][3*n+3].x+e[3*t+3][3*n].x)+3*(e[3*t+3][3*n+1].x+e[3*t+1][3*n+3].x)+-1*e[3*t+3][3*n+3].x)/9,e[3*t+1][3*n+2].x=(-4*e[3*t][3*n+3].x+6*(e[3*t][3*n+2].x+e[3*t+1][3*n+3].x)+-2*(e[3*t][3*n].x+e[3*t+3][3*n+3].x)+3*(e[3*t+3][3*n+2].x+e[3*t+1][3*n].x)+-1*e[3*t+3][3*n].x)/9,e[3*t+2][3*n+1].x=(-4*e[3*t+3][3*n].x+6*(e[3*t+3][3*n+1].x+e[3*t+2][3*n].x)+-2*(e[3*t+3][3*n+3].x+e[3*t][3*n].x)+3*(e[3*t][3*n+1].x+e[3*t+2][3*n+3].x)+-1*e[3*t][3*n+3].x)/9,e[3*t+2][3*n+2].x=(-4*e[3*t+3][3*n+3].x+6*(e[3*t+3][3*n+2].x+e[3*t+2][3*n+3].x)+-2*(e[3*t+3][3*n].x+e[3*t][3*n+3].x)+3*(e[3*t][3*n+2].x+e[3*t+2][3*n].x)+-1*e[3*t][3*n].x)/9,e[3*t+1][3*n+1].y=(-4*e[3*t][3*n].y+6*(e[3*t][3*n+1].y+e[3*t+1][3*n].y)+-2*(e[3*t][3*n+3].y+e[3*t+3][3*n].y)+3*(e[3*t+3][3*n+1].y+e[3*t+1][3*n+3].y)+-1*e[3*t+3][3*n+3].y)/9,e[3*t+1][3*n+2].y=(-4*e[3*t][3*n+3].y+6*(e[3*t][3*n+2].y+e[3*t+1][3*n+3].y)+-2*(e[3*t][3*n].y+e[3*t+3][3*n+3].y)+3*(e[3*t+3][3*n+2].y+e[3*t+1][3*n].y)+-1*e[3*t+3][3*n].y)/9,e[3*t+2][3*n+1].y=(-4*e[3*t+3][3*n].y+6*(e[3*t+3][3*n+1].y+e[3*t+2][3*n].y)+-2*(e[3*t+3][3*n+3].y+e[3*t][3*n].y)+3*(e[3*t][3*n+1].y+e[3*t+2][3*n+3].y)+-1*e[3*t][3*n+3].y)/9,e[3*t+2][3*n+2].y=(-4*e[3*t+3][3*n+3].y+6*(e[3*t+3][3*n+2].y+e[3*t+2][3*n+3].y)+-2*(e[3*t+3][3*n].y+e[3*t][3*n+3].y)+3*(e[3*t][3*n+2].y+e[3*t+2][3*n].y)+-1*e[3*t][3*n].y)/9}}this.nodes=e,this.colors=s}paintMesh(t,e){let s=(this.nodes.length-1)/3,r=(this.nodes[0].length-1)/3;if(&quot;bilinear&quot;===this.type||s&lt;2||r&lt;2){let n;for(let o=0;o&lt;s;++o)for(let s=0;s&lt;r;++s){let r=[];for(let t=3*o,e=3*o+4;t&lt;e;++t)r.push(this.nodes[t].slice(3*s,3*s+4));let i=[];i.push(this.colors[o].slice(s,s+2)),i.push(this.colors[o+1].slice(s,s+2)),(n=new m(r,i)).paint(t,e)}}else{let n,o,a,h,l,d,u;const x=s,g=r;s++,r++;let w=new Array(s);for(let t=0;t&lt;s;++t){w[t]=new Array(r);for(let e=0;e&lt;r;++e)w[t][e]=[],w[t][e][0]=this.nodes[3*t][3*e],w[t][e][1]=this.colors[t][e]}for(let t=0;t&lt;s;++t)for(let e=0;e&lt;r;++e)0!==t&amp;&amp;t!==x&amp;&amp;(n=i(w[t-1][e][0],w[t][e][0]),o=i(w[t+1][e][0],w[t][e][0]),w[t][e][2]=c(w[t-1][e][1],w[t][e][1],w[t+1][e][1],n,o)),0!==e&amp;&amp;e!==g&amp;&amp;(n=i(w[t][e-1][0],w[t][e][0]),o=i(w[t][e+1][0],w[t][e][0]),w[t][e][3]=c(w[t][e-1][1],w[t][e][1],w[t][e+1][1],n,o));for(let t=0;t&lt;r;++t){w[0][t][2]=[],w[x][t][2]=[];for(let e=0;e&lt;4;++e)n=i(w[1][t][0],w[0][t][0]),o=i(w[x][t][0],w[x-1][t][0]),w[0][t][2][e]=n&gt;0?2*(w[1][t][1][e]-w[0][t][1][e])/n-w[1][t][2][e]:0,w[x][t][2][e]=o&gt;0?2*(w[x][t][1][e]-w[x-1][t][1][e])/o-w[x-1][t][2][e]:0}for(let t=0;t&lt;s;++t){w[t][0][3]=[],w[t][g][3]=[];for(let e=0;e&lt;4;++e)n=i(w[t][1][0],w[t][0][0]),o=i(w[t][g][0],w[t][g-1][0]),w[t][0][3][e]=n&gt;0?2*(w[t][1][1][e]-w[t][0][1][e])/n-w[t][1][3][e]:0,w[t][g][3][e]=o&gt;0?2*(w[t][g][1][e]-w[t][g-1][1][e])/o-w[t][g-1][3][e]:0}for(let s=0;s&lt;x;++s)for(let r=0;r&lt;g;++r){let n=i(w[s][r][0],w[s+1][r][0]),o=i(w[s][r+1][0],w[s+1][r+1][0]),c=i(w[s][r][0],w[s][r+1][0]),x=i(w[s+1][r][0],w[s+1][r+1][0]),g=[[],[],[],[]];for(let t=0;t&lt;4;++t){(d=[])[0]=w[s][r][1][t],d[1]=w[s+1][r][1][t],d[2]=w[s][r+1][1][t],d[3]=w[s+1][r+1][1][t],d[4]=w[s][r][2][t]*n,d[5]=w[s+1][r][2][t]*n,d[6]=w[s][r+1][2][t]*o,d[7]=w[s+1][r+1][2][t]*o,d[8]=w[s][r][3][t]*c,d[9]=w[s+1][r][3][t]*x,d[10]=w[s][r+1][3][t]*c,d[11]=w[s+1][r+1][3][t]*x,d[12]=0,d[13]=0,d[14]=0,d[15]=0,u=f(d);for(let e=0;e&lt;9;++e){g[t][e]=[];for(let s=0;s&lt;9;++s)g[t][e][s]=p(u,e/8,s/8),g[t][e][s]&gt;255?g[t][e][s]=255:g[t][e][s]&lt;0&amp;&amp;(g[t][e][s]=0)}}h=[];for(let t=3*s,e=3*s+4;t&lt;e;++t)h.push(this.nodes[t].slice(3*r,3*r+4));l=y(h);for(let s=0;s&lt;8;++s)for(let r=0;r&lt;8;++r)(a=new m(l[s][r],[[[g[0][s][r],g[1][s][r],g[2][s][r],g[3][s][r]],[g[0][s][r+1],g[1][s][r+1],g[2][s][r+1],g[3][s][r+1]]],[[g[0][s+1][r],g[1][s+1][r],g[2][s+1][r],g[3][s+1][r]],[g[0][s+1][r+1],g[1][s+1][r+1],g[2][s+1][r+1],g[3][s+1][r+1]]]])).paint(t,e)}}}transform(t){if(t instanceof x)for(let e=0,s=this.nodes.length;e&lt;s;++e)for(let s=0,r=this.nodes[0].length;s&lt;r;++s)this.nodes[e][s]=this.nodes[e][s].add(t);else if(t instanceof g)for(let e=0,s=this.nodes.length;e&lt;s;++e)for(let s=0,r=this.nodes[0].length;s&lt;r;++s)this.nodes[e][s]=this.nodes[e][s].transform(t)}scale(t){for(let e=0,s=this.nodes.length;e&lt;s;++e)for(let s=0,r=this.nodes[0].length;s&lt;r;++s)this.nodes[e][s]=this.nodes[e][s].scale(t)}}document.querySelectorAll(&quot;rect,circle,ellipse,path,text&quot;).forEach((r,n)=&gt;{let o=r.getAttribute(&quot;id&quot;);o||(o=&quot;patchjs_shape&quot;+n,r.setAttribute(&quot;id&quot;,o));const i=r.style.fill.match(/^url\(\s*&quot;?\s*#([^\s&quot;]+)&quot;?\s*\)/),a=r.style.stroke.match(/^url\(\s*&quot;?\s*#([^\s&quot;]+)&quot;?\s*\)/);if(i&amp;&amp;i[1]){const a=document.getElementById(i[1]);if(a&amp;&amp;&quot;meshgradient&quot;===a.nodeName){const i=r.getBBox();let l=document.createElementNS(s,&quot;canvas&quot;);d(l,{width:i.width,height:i.height});const c=l.getContext(&quot;2d&quot;);let u=c.createImageData(i.width,i.height);const f=new b(a);&quot;objectBoundingBox&quot;===a.getAttribute(&quot;gradientUnits&quot;)&amp;&amp;f.scale(new x(i.width,i.height));const p=a.getAttribute(&quot;gradientTransform&quot;);null!=p&amp;&amp;f.transform(h(p)),&quot;userSpaceOnUse&quot;===a.getAttribute(&quot;gradientUnits&quot;)&amp;&amp;f.transform(new x(-i.x,-i.y)),f.paintMesh(u.data,l.width),c.putImageData(u,0,0);const y=document.createElementNS(t,&quot;image&quot;);d(y,{width:i.width,height:i.height,x:i.x,y:i.y});let g=l.toDataURL();y.setAttributeNS(e,&quot;xlink:href&quot;,g),r.parentNode.insertBefore(y,r),r.style.fill=&quot;none&quot;;const w=document.createElementNS(t,&quot;use&quot;);w.setAttributeNS(e,&quot;xlink:href&quot;,&quot;#&quot;+o);const m=&quot;patchjs_clip&quot;+n,M=document.createElementNS(t,&quot;clipPath&quot;);M.setAttribute(&quot;id&quot;,m),M.appendChild(w),r.parentElement.insertBefore(M,r),y.setAttribute(&quot;clip-path&quot;,&quot;url(#&quot;+m+&quot;)&quot;),u=null,l=null,g=null}}if(a&amp;&amp;a[1]){const o=document.getElementById(a[1]);if(o&amp;&amp;&quot;meshgradient&quot;===o.nodeName){const i=parseFloat(r.style.strokeWidth.slice(0,-2))*(parseFloat(r.style.strokeMiterlimit)||parseFloat(r.getAttribute(&quot;stroke-miterlimit&quot;))||1),a=r.getBBox(),l=Math.trunc(a.width+i),c=Math.trunc(a.height+i),u=Math.trunc(a.x-i/2),f=Math.trunc(a.y-i/2);let p=document.createElementNS(s,&quot;canvas&quot;);d(p,{width:l,height:c});const y=p.getContext(&quot;2d&quot;);let g=y.createImageData(l,c);const w=new b(o);&quot;objectBoundingBox&quot;===o.getAttribute(&quot;gradientUnits&quot;)&amp;&amp;w.scale(new x(l,c));const m=o.getAttribute(&quot;gradientTransform&quot;);null!=m&amp;&amp;w.transform(h(m)),&quot;userSpaceOnUse&quot;===o.getAttribute(&quot;gradientUnits&quot;)&amp;&amp;w.transform(new x(-u,-f)),w.paintMesh(g.data,p.width),y.putImageData(g,0,0);const M=document.createElementNS(t,&quot;image&quot;);d(M,{width:l,height:c,x:0,y:0});let S=p.toDataURL();M.setAttributeNS(e,&quot;xlink:href&quot;,S);const k=&quot;pattern_clip&quot;+n,A=document.createElementNS(t,&quot;pattern&quot;);d(A,{id:k,patternUnits:&quot;userSpaceOnUse&quot;,width:l,height:c,x:u,y:f}),A.appendChild(M),o.parentNode.appendChild(A),r.style.stroke=&quot;url(#&quot;+k+&quot;)&quot;,g=null,p=null,S=null}}})}();
</script>
</svg>
